<svg xmlns="http://www.w3.org/2000/svg" width="512" height="512" viewBox="0 0 512 512"><g transform="scale(8)"><path d="M56,5h-44c-0.552,0 -1,0.448 -1,1v9h-3c-0.552,0 -1,0.448 -1,1c0,0.552 0.448,1 1,1h3v6h-3c-0.552,0 -1,0.448 -1,1c0,0.552 0.448,1 1,1h3v6h-3c-0.552,0 -1,0.448 -1,1c0,0.552 0.448,1 1,1h3v6h-3c-0.552,0 -1,0.447 -1,1c0,0.553 0.448,1 1,1h3v6h-3c-0.552,0 -1,0.447 -1,1c0,0.553 0.448,1 1,1h3v9c0,0.553 0.448,1 1,1h44c0.553,0 1,-0.447 1,-1v-52c0,-0.552 -0.447,-1 -1,-1Zm-1,52h-42v-8h3c0.552,0 1,-0.447 1,-1c0,-0.553 -0.448,-1 -1,-1h-3v-6h3c0.552,0 1,-0.447 1,-1c0,-0.553 -0.448,-1 -1,-1h-3v-6h3c0.552,0 1,-0.448 1,-1c0,-0.552 -0.448,-1 -1,-1h-3v-6h3c0.552,0 1,-0.448 1,-1c0,-0.552 -0.448,-1 -1,-1h-3v-6h3c0.552,0 1,-0.448 1,-1c0,-0.552 -0.448,-1 -1,-1h-3v-8h42v50Z"/><path d="M24,45c0.552,0 1,-0.447 1,-1c0,-6.065 4.935,-11 11,-11c6.065,0 11,4.935 11,11c0,0.553 0.447,1 1,1c0.553,0 1,-0.447 1,-1c0,-5.738 -3.742,-10.611 -8.91,-12.331c1.759,-1.273 2.91,-3.336 2.91,-5.669c0,-3.86 -3.141,-7 -7,-7c-3.86,0 -7,3.14 -7,7c0,2.333 1.151,4.396 2.91,5.669c-5.168,1.72 -8.91,6.593 -8.91,12.331c0,0.553 0.448,1 1,1Zm7,-19c0,-2.757 2.243,-5 5,-5c2.757,0 5,2.243 5,5c0,2.757 -2.243,5 -5,5c-2.757,0 -5,-2.243 -5,-5Z"/></g></svg>