<svg xmlns="http://www.w3.org/2000/svg" data-name="Layer 3" viewBox="0 0 32 32"><path fill="none" stroke="#0832ff" stroke-linecap="round" stroke-linejoin="round" stroke-width="2" d="M8.25 25a5 5 0 01-4.9-6 5.12 5.12 0 015.08-4H10V25zM23.75 25a5 5 0 004.9-6 5.12 5.12 0 00-5.08-4H22V25z"/><path fill="none" stroke="#0832ff" stroke-linecap="round" stroke-linejoin="round" stroke-width="2" d="M7 15V13.82a9.11 9.11 0 016.91-9A9 9 0 0125 13.61V15M10 25h0a3 3 0 003 3"/><circle cx="16" cy="28" r="1" fill="#0832ff"/><line x1="7.5" x2="7.5" y1="15.5" y2="24.5" fill="none" stroke="#0832ff" stroke-linecap="round" stroke-linejoin="round"/><rect width="2" height="10" x="22" y="15" fill="#0832ff"/></svg>