<svg xmlns="http://www.w3.org/2000/svg" width="512" height="512" viewBox="0 0 512 512"><g transform="scale(8)"><path d="M52,7h-40c-2.757,0 -5,2.243 -5,5v40c0,2.757 2.243,5 5,5h40c2.757,0 5,-2.243 5,-5v-40c0,-2.757 -2.243,-5 -5,-5Zm3,45c0,1.654 -1.346,3 -3,3h-40c-1.654,0 -3,-1.346 -3,-3v-40c0,-1.654 1.346,-3 3,-3h40c1.654,0 3,1.346 3,3v40Z"/><path d="M49.879 23.293c-.375-.375-1.039-.375-1.414 0l-16.971 16.971c-.11.109-.192.243-.242.391l-1.414 4.242c-.12.359-.026.756.242 1.023.19.19.446.293.707.293.106 0 .212-.017.316-.052l4.242-1.414c.147-.049.281-.132.391-.241l16.971-16.971c.188-.187.293-.442.293-.707 0-.265-.105-.52-.293-.707l-2.828-2.828zm-15.39 19.632l-2.121.707.707-2.121 16.097-16.097 1.414 1.414-16.097 16.097zM16 17h32c.553 0 1-.448 1-1 0-.552-.447-1-1-1h-32c-.552 0-1 .448-1 1 0 .552.448 1 1 1zM16 23h28c.553 0 1-.448 1-1 0-.552-.447-1-1-1h-28c-.552 0-1 .448-1 1 0 .552.448 1 1 1zM16 29h22c.553 0 1-.448 1-1 0-.552-.447-1-1-1h-22c-.552 0-1 .448-1 1 0 .552.448 1 1 1zM16 35h16c.552 0 1-.447 1-1 0-.553-.448-1-1-1h-16c-.552 0-1 .447-1 1 0 .553.448 1 1 1zM28 39h-12c-.552 0-1 .447-1 1 0 .553.448 1 1 1h12c.552 0 1-.447 1-1 0-.553-.448-1-1-1zM26 45h-10c-.552 0-1 .447-1 1 0 .553.448 1 1 1h10c.552 0 1-.447 1-1 0-.553-.448-1-1-1z"/></g></svg>