<svg id="SvgjsSvg1018" width="288" height="288" xmlns="http://www.w3.org/2000/svg" version="1.1" xmlns:xlink="http://www.w3.org/1999/xlink" xmlns:svgjs="http://svgjs.com/svgjs"><defs id="SvgjsDefs1019"></defs><g id="SvgjsG1020" transform="matrix(1,0,0,1,0,0)"><svg xmlns="http://www.w3.org/2000/svg" xmlns:svgjs="http://svgjs.com/svgjs" xmlns:xlink="http://www.w3.org/1999/xlink" width="288" height="288"><svg xmlns="http://www.w3.org/2000/svg" width="288" height="288" viewBox="0 0 48 48"><path fill="#8e9192" d="M42 48H28V35h-8v13H6V27a1 1 0 1 1 2 0v19h10V33h12v13h10V28a1 1 0 1 1 2 0v20z" class="color000 svgShape colora03232"></path><path fill="#8e9192" d="M47 27a.997.997 0 01-.691-.277L24 5.384 1.691 26.723a1 1 0 01-1.383-1.445L24 2.616l23.691 22.661A1 1 0 0147 27zM39 15a1 1 0 01-1-1V8h-6a1 1 0 110-2h8v8a1 1 0 01-1 1z" class="color000 svgShape colora03232"></path></svg></svg></g></svg>