<svg xmlns="http://www.w3.org/2000/svg" enable-background="new 0 0 60 60" viewBox="0 0 60 60"><path d="M51.4,15.5H38.6V12c0-2-1.7-3.7-3.7-3.7h-9.6c-2,0-3.7,1.7-3.7,3.7v3.5H8.7c-2,0-3.7,1.6-3.7,3.7V50c0,2,1.7,3.7,3.7,3.7
	h42.6c2,0,3.7-1.7,3.7-3.7V19.1C55.1,17.1,53.4,15.5,51.4,15.5z M23.6,12c0-0.9,0.8-1.7,1.7-1.7h9.6c0.9,0,1.7,0.8,1.7,1.7v3.5h-13
	V12z M7.1,19.1c0-0.9,0.8-1.7,1.7-1.7h42.6c0.9,0,1.7,0.7,1.7,1.7v8.6c0,1.8-1.5,3.3-3.3,3.3H32.6c0,0,0,0,0,0s0,0,0,0h-5
	c0,0,0,0,0,0s0,0,0,0H10.4c-1.8,0-3.3-1.5-3.3-3.3V19.1z M28.5,33h3.1V37c0,0.8-0.7,1.5-1.5,1.5s-1.5-0.7-1.5-1.5V33z M51.4,51.7
	H8.7c-0.9,0-1.7-0.8-1.7-1.7V31.8C8,32.6,9.1,33,10.4,33h16.1V37c0,1.9,1.6,3.5,3.5,3.5c1.9,0,3.5-1.6,3.5-3.5V33h16.1
	c1.3,0,2.4-0.5,3.3-1.2V50C53.1,50.9,52.3,51.7,51.4,51.7z"/></svg>