<svg xmlns="http://www.w3.org/2000/svg" enable-background="new 0 0 512 512" viewBox="0 0 512 512"><path fill="#d7e9ff" d="M427.78,36.12v439.76c0,13.011-10.548,23.559-23.559,23.559H107.779
			c-13.011,0-23.559-10.548-23.559-23.559V36.12c0-13.011,10.548-23.559,23.559-23.559h296.443
			C417.232,12.562,427.78,23.109,427.78,36.12z"/><path fill="#fff" d="M321.061,131.499c0,21.203-10.13,39.971-25.758,51.829c-10.837,8.324-24.501,13.193-39.264,13.193
			c-14.763,0-28.427-4.869-39.343-13.193c-15.627-11.858-25.757-30.626-25.757-51.829c0-35.809,29.134-64.943,65.1-64.943
			C291.927,66.556,321.061,95.69,321.061,131.499z"/><path fill="#94c1ff" d="M273.982 119.435c0 9.904-8.078 17.982-17.982 17.982-9.974 0-17.982-8.078-17.982-17.982 0-9.974 8.008-17.982 17.982-17.982C265.904 101.453 273.982 109.46 273.982 119.435zM295.303 183.328c-10.837 8.324-24.501 13.193-39.264 13.193-14.763 0-28.427-4.869-39.343-13.193 7.068-15.077 21.988-25.365 39.343-25.365C273.315 157.964 288.236 168.251 295.303 183.328z"/><path fill="#116fff" d="M256.038,204.374c40.262,0,72.877-32.509,72.877-72.873c0-40.139-32.692-72.796-72.877-72.796
					c-40.223,0-72.953,32.658-72.953,72.796C183.085,172.161,215.995,204.374,256.038,204.374z M227.296,180.821
					c6.663-9.359,17.146-15.006,28.743-15.006c11.565,0,22.028,5.654,28.682,15.023c-8.601,5.058-18.35,7.83-28.682,7.83
					C245.726,188.668,235.96,185.891,227.296,180.821z M256.038,74.41c31.526,0,57.171,25.61,57.171,57.09
					c0,15.066-5.826,29.082-16.132,39.689c-9.582-13.152-24.514-21.081-41.039-21.081c-16.566,0-31.526,7.931-41.117,21.086
					c-10.297-10.592-16.131-24.617-16.131-39.694C198.791,100.02,224.474,74.41,256.038,74.41z"/><path fill="#116fff" d="M256 145.27c14.249 0 25.836-11.591 25.836-25.836S270.249 93.602 256 93.602c-14.249 0-25.836 11.588-25.836 25.832S241.751 145.27 256 145.27zM256 109.307c5.583 0 10.13 4.544 10.13 10.127 0 5.587-4.548 10.13-10.13 10.13s-10.13-4.544-10.13-10.13C245.87 113.755 250.317 109.307 256 109.307zM370.81 248.147H141.19c-4.341 0-7.853 3.516-7.853 7.853 0 4.337 3.512 7.853 7.853 7.853H370.81c4.341 0 7.853-3.516 7.853-7.853C378.663 251.663 375.15 248.147 370.81 248.147zM370.81 307.626H141.19c-4.341 0-7.853 3.516-7.853 7.853 0 4.337 3.512 7.853 7.853 7.853H370.81c4.341 0 7.853-3.516 7.853-7.853C378.663 311.143 375.15 307.626 370.81 307.626zM370.81 367.106H141.19c-4.341 0-7.853 3.516-7.853 7.853 0 4.337 3.512 7.853 7.853 7.853H370.81c4.341 0 7.853-3.516 7.853-7.853C378.663 370.622 375.15 367.106 370.81 367.106zM370.81 426.585H141.19c-4.341 0-7.853 3.516-7.853 7.853 0 4.337 3.512 7.853 7.853 7.853H370.81c4.341 0 7.853-3.516 7.853-7.853C378.663 430.101 375.15 426.585 370.81 426.585z"/><path fill="#116fff" d="M404.223,4.709H107.777c-17.324,0-31.411,14.091-31.411,31.411v439.76
			c0,17.32,14.088,31.411,31.411,31.411h296.445c17.324,0,31.411-14.091,31.411-31.411V36.12
			C435.634,18.8,421.546,4.709,404.223,4.709z M419.928,475.88c0,8.662-7.048,15.706-15.706,15.706H107.777
			c-8.658,0-15.706-7.044-15.706-15.706V36.12c0-8.662,7.048-15.706,15.706-15.706h296.445c8.658,0,15.706,7.044,15.706,15.706
			V475.88z"/></svg>